{
  "accessors": [
    {
      "bufferView": 2,
      "componentType": 5126,
      "count": 57078,
      "max": [
        0.5994979739189148,
        0.8282830119132996,
        -1.3660730123519897
      ],
      "min": [
        -0.28301599621772766,
        0.6098260283470154,
        -1.7567119598388672
      ],
      "type": "VEC3"
    },
    {
      "bufferView": 2,
      "byteOffset": 684936,
      "componentType": 5126,
      "count": 57078,
      "max": [
        0.9999957084655762,
        0.9999969005584717,
        0.9999292492866516
      ],
      "min": [
        -0.9999887347221375,
        -0.9999936819076538,
        -0.9999979734420776
      ],
      "type": "VEC3"
    },
    {
      "bufferView": 3,
      "componentType": 5126,
      "count": 57078,
      "max": [
        0.9999909400939941,
        0.9999759793281555,
        0.999997615814209,
        1.0
      ],
      "min": [
        -0.9999569058418274,
        -0.9999967813491821,
        -0.9999963641166687,
        -1.0
      ],
      "type": "VEC4"
    },
    {
      "bufferView": 1,
      "componentType": 5126,
      "count": 57078,
      "max": [
        0.9989590048789978,
        0.9999989867210388
      ],
      "min": [
        0.00010800000018207356,
        3.099999958067201e-05
      ],
      "type": "VEC2"
    },
    {
      "bufferView": 0,
      "componentType": 5125,
      "count": 192000,
      "type": "SCALAR"
    }
  ],
  "asset": {
    "extras": {
      "author": "Minneapolis Institute of Art (https://sketchfab.com/artsmia)",
      "license": "CC-BY-NC-SA-4.0 (http://creativecommons.org/licenses/by-nc-sa/4.0/)",
      "source": "https://sketchfab.com/3d-models/lintel-with-vishnus-and-celestial-musicians-678f78b844f447dcb568eccf6f1727aa",
      "title": "Lintel with Vishnus and Celestial Musicians"
    },
    "generator": "Sketchfab-14.13.0",
    "version": "2.0"
  },
  "bufferViews": [
    {
      "buffer": 0,
      "byteLength": 768000,
      "name": "floatBufferViews",
      "target": 34963
    },
    {
      "buffer": 0,
      "byteLength": 456624,
      "byteOffset": 768000,
      "byteStride": 8,
      "name": "floatBufferViews",
      "target": 34962
    },
    {
      "buffer": 0,
      "byteLength": 1369872,
      "byteOffset": 1224624,
      "byteStride": 12,
      "name": "floatBufferViews",
      "target": 34962
    },
    {
      "buffer": 0,
      "byteLength": 913248,
      "byteOffset": 2594496,
      "byteStride": 16,
      "name": "floatBufferViews",
      "target": 34962
    }
  ],
  "buffers": [
    {
      "byteLength": 3507744,
      "uri": "scene.bin"
    }
  ],
  "images": [
    {
      "uri": "textures/Mia_005110_VishnusLintel_64k_baseColor.jpeg"
    },
    {
      "uri": "textures/Mia_005110_VishnusLintel_64k_metallicRoughness.png"
    },
    {
      "uri": "textures/Mia_005110_VishnusLintel_64k_normal.png"
    }
  ],
  "materials": [
    {
      "doubleSided": true,
      "name": "Mia_005110_VishnusLintel_64k",
      "normalTexture": {
        "index": 2
      },
      "occlusionTexture": {
        "index": 1
      },
      "pbrMetallicRoughness": {
        "baseColorTexture": {
          "index": 0
        },
        "metallicFactor": 0.0,
        "metallicRoughnessTexture": {
          "index": 1
        }
      }
    }
  ],
  "meshes": [
    {
      "name": "Object_0",
      "primitives": [
        {
          "attributes": {
            "NORMAL": 1,
            "POSITION": 0,
            "TANGENT": 2,
            "TEXCOORD_0": 3
          },
          "indices": 4,
          "material": 0,
          "mode": 4
        }
      ]
    }
  ],
  "nodes": [
    {
      "children": [
        1
      ],
      "matrix": [
        0.9591609835624695,
        0.018426876515150008,
        0.28225991129875183,
        0.0,
        0.28230783343315125,
        2.125790117394645e-16,
        -0.9593238830566406,
        0.0,
        -0.017677342519164085,
        0.9998301863670349,
        -0.005202051252126472,
        0.0,
        0.0,
        0.0,
        0.0,
        1.0
      ],
      "name": "Sketchfab_model"
    },
    {
      "children": [
        2
      ],
      "name": "Mia_005110_VishnusLintel_64k.obj.cleaner.materialmerger.gles"
    },
    {
      "mesh": 0,
      "name": "Object_2"
    }
  ],
  "samplers": [
    {
      "magFilter": 9729,
      "minFilter": 9987,
      "wrapS": 10497,
      "wrapT": 10497
    }
  ],
  "scene": 0,
  "scenes": [
    {
      "name": "Sketchfab_Scene",
      "nodes": [
        0
      ]
    }
  ],
  "textures": [
    {
      "sampler": 0,
      "source": 0
    },
    {
      "sampler": 0,
      "source": 1
    },
    {
      "sampler": 0,
      "source": 2
    }
  ]
}
