{
  "accessors": [
    {
      "bufferView": 2,
      "componentType": 5126,
      "count": 24147,
      "max": [
        40.31650161743164,
        34.57699966430664,
        187.40939331054688
      ],
      "min": [
        -30.312299728393555,
        -43.332698822021484,
        5.440499782562256
      ],
      "type": "VEC3"
    },
    {
      "bufferView": 2,
      "byteOffset": 289764,
      "componentType": 5126,
      "count": 24147,
      "max": [
        0.9997854828834534,
        0.9997835755348206,
        0.9999853372573853
      ],
      "min": [
        -0.9999918341636658,
        -0.9999384880065918,
        -0.9994992017745972
      ],
      "type": "VEC3"
    },
    {
      "bufferView": 1,
      "componentType": 5126,
      "count": 24147,
      "max": [
        0.9980000257492065,
        0.9980999827384949
      ],
      "min": [
        0.0019000000320374966,
        0.07450000196695328
      ],
      "type": "VEC2"
    },
    {
      "bufferView": 1,
      "byteOffset": 193176,
      "componentType": 5126,
      "count": 24147,
      "max": [
        0.9980000257492065,
        0.9980999827384949
      ],
      "min": [
        0.0019000000320374966,
        0.07450000196695328
      ],
      "type": "VEC2"
    },
    {
      "bufferView": 0,
      "componentType": 5125,
      "count": 143964,
      "type": "SCALAR"
    },
    {
      "bufferView": 2,
      "byteOffset": 579528,
      "componentType": 5126,
      "count": 50201,
      "max": [
        5.633200168609619,
        27.74920082092285,
        228.12570190429688
      ],
      "min": [
        -34.95800018310547,
        -30.87809944152832,
        3.2476999759674072
      ],
      "type": "VEC3"
    },
    {
      "bufferView": 2,
      "byteOffset": 1181940,
      "componentType": 5126,
      "count": 50201,
      "max": [
        1.0,
        0.9999859929084778,
        0.999998152256012
      ],
      "min": [
        -1.0,
        -0.9999921321868896,
        -0.9999846816062927
      ],
      "type": "VEC3"
    },
    {
      "bufferView": 1,
      "byteOffset": 386352,
      "componentType": 5126,
      "count": 50201,
      "max": [
        0.9973000288009644,
        0.9975000023841858
      ],
      "min": [
        0.00570000009611249,
        0.004900000058114529
      ],
      "type": "VEC2"
    },
    {
      "bufferView": 1,
      "byteOffset": 787960,
      "componentType": 5126,
      "count": 50201,
      "max": [
        0.9973000288009644,
        0.9975000023841858
      ],
      "min": [
        0.00570000009611249,
        0.004900000058114529
      ],
      "type": "VEC2"
    },
    {
      "bufferView": 0,
      "byteOffset": 575856,
      "componentType": 5125,
      "count": 292896,
      "type": "SCALAR"
    },
    {
      "bufferView": 2,
      "byteOffset": 1784352,
      "componentType": 5126,
      "count": 12480,
      "max": [
        6.198599815368652,
        5.507400035858154,
        286.6882019042969
      ],
      "min": [
        -43.55350112915039,
        -20.14150047302246,
        185.47610473632813
      ],
      "type": "VEC3"
    },
    {
      "bufferView": 2,
      "byteOffset": 1934112,
      "componentType": 5126,
      "count": 12480,
      "max": [
        0.999984860420227,
        0.9999427795410156,
        0.9994997382164001
      ],
      "min": [
        -0.9995255470275879,
        -0.9999975562095642,
        -0.9998811483383179
      ],
      "type": "VEC3"
    },
    {
      "bufferView": 1,
      "byteOffset": 1189568,
      "componentType": 5126,
      "count": 12480,
      "max": [
        0.9954000115394592,
        0.9968000054359436
      ],
      "min": [
        0.05389999970793724,
        0.23149999976158142
      ],
      "type": "VEC2"
    },
    {
      "bufferView": 1,
      "byteOffset": 1289408,
      "componentType": 5126,
      "count": 12480,
      "max": [
        0.9954000115394592,
        0.9968000054359436
      ],
      "min": [
        0.05389999970793724,
        0.23149999976158142
      ],
      "type": "VEC2"
    },
    {
      "bufferView": 0,
      "byteOffset": 1747440,
      "componentType": 5125,
      "count": 72690,
      "type": "SCALAR"
    }
  ],
  "asset": {
    "extras": {
      "author": "Virtual Museums of Małopolska (https://sketchfab.com/WirtualneMuzeaMalopolski)",
      "license": "CC0-1.0 (http://creativecommons.org/publicdomain/zero/1.0/)",
      "source": "https://sketchfab.com/3d-models/arjuna-wayang-golek-theatre-puppet-3043564cc38b49aa8b08a61ce68dd61a",
      "title": "“Arjuna” — “Wayang Golek” theatre puppet"
    },
    "generator": "Sketchfab-12.68.0",
    "version": "2.0"
  },
  "bufferViews": [
    {
      "buffer": 0,
      "byteLength": 2038200,
      "name": "floatBufferViews",
      "target": 34963
    },
    {
      "buffer": 0,
      "byteLength": 1389248,
      "byteOffset": 2038200,
      "byteStride": 8,
      "name": "floatBufferViews",
      "target": 34962
    },
    {
      "buffer": 0,
      "byteLength": 2083872,
      "byteOffset": 3427448,
      "byteStride": 12,
      "name": "floatBufferViews",
      "target": 34962
    }
  ],
  "buffers": [
    {
      "byteLength": 5511320,
      "uri": "scene.bin"
    }
  ],
  "images": [
    {
      "uri": "textures/ardzuna_sukienka_baseColor.jpeg"
    },
    {
      "uri": "textures/ardzuna_sukienka_metallicRoughness.png"
    },
    {
      "uri": "textures/ardzuna_body_baseColor.jpeg"
    },
    {
      "uri": "textures/ardzuna_body_FLIP_baseColor.jpeg"
    }
  ],
  "materials": [
    {
      "doubleSided": true,
      "name": "ardzuna_sukienka",
      "occlusionTexture": {
        "index": 1
      },
      "pbrMetallicRoughness": {
        "baseColorTexture": {
          "index": 0
        },
        "metallicFactor": 0.0,
        "metallicRoughnessTexture": {
          "index": 1
        },
        "roughnessFactor": 0.5287728658536586
      }
    },
    {
      "doubleSided": true,
      "name": "ardzuna_body",
      "pbrMetallicRoughness": {
        "baseColorTexture": {
          "index": 2
        },
        "metallicFactor": 0.0,
        "roughnessFactor": 0.4738948170731707
      }
    },
    {
      "doubleSided": true,
      "name": "ardzuna_body_FLIP",
      "pbrMetallicRoughness": {
        "baseColorTexture": {
          "index": 3
        },
        "metallicFactor": 0.0,
        "roughnessFactor": 0.44950457317073167
      }
    }
  ],
  "meshes": [
    {
      "name": "1237_ardjuna_ardzuna_sukienka_0",
      "primitives": [
        {
          "attributes": {
            "NORMAL": 1,
            "POSITION": 0,
            "TEXCOORD_0": 2,
            "TEXCOORD_1": 3
          },
          "indices": 4,
          "material": 0,
          "mode": 4
        }
      ]
    },
    {
      "name": "1237_ardjuna_ardzuna_body_0",
      "primitives": [
        {
          "attributes": {
            "NORMAL": 6,
            "POSITION": 5,
            "TEXCOORD_0": 7,
            "TEXCOORD_1": 8
          },
          "indices": 9,
          "material": 1,
          "mode": 4
        }
      ]
    },
    {
      "name": "1237_ardjuna_ardzuna_body_FLIP_0",
      "primitives": [
        {
          "attributes": {
            "NORMAL": 11,
            "POSITION": 10,
            "TEXCOORD_0": 12,
            "TEXCOORD_1": 13
          },
          "indices": 14,
          "material": 2,
          "mode": 4
        }
      ]
    }
  ],
  "nodes": [
    {
      "children": [
        1
      ],
      "matrix": [
        -1.0,
        2.832769343193999e-16,
        6.290011496532519e-32,
        0.0,
        0.0,
        2.220446049250313e-16,
        -1.0,
        0.0,
        -2.832769343193999e-16,
        -1.0,
        -2.220446049250313e-16,
        0.0,
        -0.7954847812652588,
        -77.73872375488281,
        -1.72614642035291e-14,
        1.0
      ],
      "name": "Sketchfab_model"
    },
    {
      "children": [
        2
      ],
      "matrix": [
        1.0,
        0.0,
        0.0,
        0.0,
        0.0,
        -1.0,
        0.0,
        0.0,
        0.0,
        0.0,
        -1.0,
        0.0,
        0.0,
        0.0,
        0.0,
        1.0
      ],
      "name": "4ddcd1f90c2640379e1c80f662300d2b.fbx"
    },
    {
      "children": [
        3
      ],
      "name": "RootNode"
    },
    {
      "children": [
        4,
        5,
        6
      ],
      "matrix": [
        0.24575799703598022,
        0.0,
        0.0,
        0.0,
        0.0,
        0.26812416315078735,
        0.0,
        0.0,
        0.0,
        0.0,
        0.26812416315078735,
        0.0,
        0.0,
        0.0,
        0.0,
        1.0
      ],
      "name": "1237_ardjuna"
    },
    {
      "mesh": 0,
      "name": "1237_ardjuna_ardzuna_sukienka_0"
    },
    {
      "mesh": 1,
      "name": "1237_ardjuna_ardzuna_body_0"
    },
    {
      "mesh": 2,
      "name": "1237_ardjuna_ardzuna_body_FLIP_0"
    }
  ],
  "samplers": [
    {
      "magFilter": 9729,
      "minFilter": 9987,
      "wrapS": 10497,
      "wrapT": 10497
    }
  ],
  "scene": 0,
  "scenes": [
    {
      "name": "Sketchfab_Scene",
      "nodes": [
        0
      ]
    }
  ],
  "textures": [
    {
      "sampler": 0,
      "source": 0
    },
    {
      "sampler": 0,
      "source": 1
    },
    {
      "sampler": 0,
      "source": 2
    },
    {
      "sampler": 0,
      "source": 3
    }
  ]
}
